  0
SECTION
  2
ENTITIES
  0
3DFACE
  8
1_Polygon Mesh
 10
7
 20
-0
 30
0
 11
6.46716
 21
-2.67878
 31
0
 12
4.94975
 22
-4.94975
 32
0
 13
6.46716
 23
2.67878
 33
0
  0
3DFACE
  8
1_Polygon Mesh
 10
6.46716
 20
2.67878
 30
0
 11
4.94975
 21
-4.94975
 31
0
 12
2.67878
 22
-6.46716
 32
0
 13
4.94975
 23
4.94975
 33
0
  0
3DFACE
  8
1_Polygon Mesh
 10
4.94975
 20
4.94975
 30
0
 11
2.67878
 21
-6.46716
 31
0
 12
-3.0598e-07
 22
-7
 32
0
 13
2.67878
 23
6.46716
 33
0
  0
3DFACE
  8
1_Polygon Mesh
 10
2.67878
 20
6.46716
 30
0
 11
-3.0598e-07
 21
-7
 31
0
 12
-2.67878
 22
-6.46716
 32
0
 13
9.17939e-07
 23
7
 33
0
  0
3DFACE
  8
1_Polygon Mesh
 10
9.17939e-07
 20
7
 30
0
 11
-2.67878
 21
-6.46716
 31
0
 12
-4.94975
 22
-4.94975
 32
0
 13
-2.67878
 23
6.46716
 33
0
  0
3DFACE
  8
1_Polygon Mesh
 10
-2.67878
 20
6.46716
 30
0
 11
-4.94975
 21
-4.94975
 31
0
 12
-6.46716
 22
-2.67878
 32
0
 13
-4.94975
 23
4.94975
 33
0
  0
3DFACE
  8
1_Polygon Mesh
 10
-4.94975
 20
4.94975
 30
0
 11
-6.46716
 21
-2.67878
 31
0
 12
-7
 22
6.11959e-07
 32
0
 13
-6.46716
 23
2.67878
 33
0
  0
3DFACE
  8
1_Polygon Mesh
 10
4.85037
 20
-2.00909
 30
2.5
 11
6.46716
 21
-2.67878
 31
0
 12
7
 22
-0
 32
0
 13
5.25
 23
-0
 33
2.5
  0
3DFACE
  8
1_Polygon Mesh
 10
3.71231
 20
-3.71231
 30
2.5
 11
4.94975
 21
-4.94975
 31
0
 12
6.46716
 22
-2.67878
 32
0
 13
4.85037
 23
-2.00909
 33
2.5
  0
3DFACE
  8
1_Polygon Mesh
 10
2.00909
 20
-4.85037
 30
2.5
 11
2.67878
 21
-6.46716
 31
0
 12
4.94975
 22
-4.94975
 32
0
 13
3.71231
 23
-3.71231
 33
2.5
  0
3DFACE
  8
1_Polygon Mesh
 10
-2.29485e-07
 20
-5.25
 30
2.5
 11
-3.0598e-07
 21
-7
 31
0
 12
2.67878
 22
-6.46716
 32
0
 13
2.00909
 23
-4.85037
 33
2.5
  0
3DFACE
  8
1_Polygon Mesh
 10
-2.00909
 20
-4.85037
 30
2.5
 11
-2.67878
 21
-6.46716
 31
0
 12
-3.0598e-07
 22
-7
 32
0
 13
-2.29485e-07
 23
-5.25
 33
2.5
  0
3DFACE
  8
1_Polygon Mesh
 10
-3.71231
 20
-3.71231
 30
2.5
 11
-4.94975
 21
-4.94975
 31
0
 12
-2.67878
 22
-6.46716
 32
0
 13
-2.00909
 23
-4.85037
 33
2.5
  0
3DFACE
  8
1_Polygon Mesh
 10
-4.85037
 20
-2.00909
 30
2.5
 11
-6.46716
 21
-2.67878
 31
0
 12
-4.94975
 22
-4.94975
 32
0
 13
-3.71231
 23
-3.71231
 33
2.5
  0
3DFACE
  8
1_Polygon Mesh
 10
-5.25
 20
4.5897e-07
 30
2.5
 11
-7
 21
6.11959e-07
 31
0
 12
-6.46716
 22
-2.67878
 32
0
 13
-4.85037
 23
-2.00909
 33
2.5
  0
3DFACE
  8
1_Polygon Mesh
 10
-4.85037
 20
2.00909
 30
2.5
 11
-6.46716
 21
2.67878
 31
0
 12
-7
 22
6.11959e-07
 32
0
 13
-5.25
 23
4.5897e-07
 33
2.5
  0
3DFACE
  8
1_Polygon Mesh
 10
-3.71231
 20
3.71231
 30
2.5
 11
-4.94975
 21
4.94975
 31
0
 12
-6.46716
 22
2.67878
 32
0
 13
-4.85037
 23
2.00909
 33
2.5
  0
3DFACE
  8
1_Polygon Mesh
 10
-2.00909
 20
4.85037
 30
2.5
 11
-2.67878
 21
6.46716
 31
0
 12
-4.94975
 22
4.94975
 32
0
 13
-3.71231
 23
3.71231
 33
2.5
  0
3DFACE
  8
1_Polygon Mesh
 10
6.88454e-07
 20
5.25
 30
2.5
 11
9.17939e-07
 21
7
 31
0
 12
-2.67878
 22
6.46716
 32
0
 13
-2.00909
 23
4.85037
 33
2.5
  0
3DFACE
  8
1_Polygon Mesh
 10
2.00909
 20
4.85037
 30
2.5
 11
2.67878
 21
6.46716
 31
0
 12
9.17939e-07
 22
7
 32
0
 13
6.88454e-07
 23
5.25
 33
2.5
  0
3DFACE
  8
1_Polygon Mesh
 10
3.71231
 20
3.71231
 30
2.5
 11
4.94975
 21
4.94975
 31
0
 12
2.67878
 22
6.46716
 32
0
 13
2.00909
 23
4.85037
 33
2.5
  0
3DFACE
  8
1_Polygon Mesh
 10
4.85037
 20
2.00909
 30
2.5
 11
6.46716
 21
2.67878
 31
0
 12
4.94975
 22
4.94975
 32
0
 13
3.71231
 23
3.71231
 33
2.5
  0
3DFACE
  8
1_Polygon Mesh
 10
5.25
 20
-0
 30
2.5
 11
7
 21
-0
 31
0
 12
6.46716
 22
2.67878
 32
0
 13
4.85037
 23
2.00909
 33
2.5
  0
3DFACE
  8
1_Polygon Mesh
 10
3.23358
 20
-1.33939
 30
5
 11
4.85037
 21
-2.00909
 31
2.5
 12
5.25
 22
-0
 32
2.5
 13
3.5
 23
-0
 33
5
  0
3DFACE
  8
1_Polygon Mesh
 10
2.47487
 20
-2.47487
 30
5
 11
3.71231
 21
-3.71231
 31
2.5
 12
4.85037
 22
-2.00909
 32
2.5
 13
3.23358
 23
-1.33939
 33
5
  0
3DFACE
  8
1_Polygon Mesh
 10
1.33939
 20
-3.23358
 30
5
 11
2.00909
 21
-4.85037
 31
2.5
 12
3.71231
 22
-3.71231
 32
2.5
 13
2.47487
 23
-2.47487
 33
5
  0
3DFACE
  8
1_Polygon Mesh
 10
-1.5299e-07
 20
-3.5
 30
5
 11
-2.29485e-07
 21
-5.25
 31
2.5
 12
2.00909
 22
-4.85037
 32
2.5
 13
1.33939
 23
-3.23358
 33
5
  0
3DFACE
  8
1_Polygon Mesh
 10
-1.33939
 20
-3.23358
 30
5
 11
-2.00909
 21
-4.85037
 31
2.5
 12
-2.29485e-07
 22
-5.25
 32
2.5
 13
-1.5299e-07
 23
-3.5
 33
5
  0
3DFACE
  8
1_Polygon Mesh
 10
-2.47487
 20
-2.47487
 30
5
 11
-3.71231
 21
-3.71231
 31
2.5
 12
-2.00909
 22
-4.85037
 32
2.5
 13
-1.33939
 23
-3.23358
 33
5
  0
3DFACE
  8
1_Polygon Mesh
 10
-3.23358
 20
-1.33939
 30
5
 11
-4.85037
 21
-2.00909
 31
2.5
 12
-3.71231
 22
-3.71231
 32
2.5
 13
-2.47487
 23
-2.47487
 33
5
  0
3DFACE
  8
1_Polygon Mesh
 10
-3.5
 20
3.0598e-07
 30
5
 11
-5.25
 21
4.5897e-07
 31
2.5
 12
-4.85037
 22
-2.00909
 32
2.5
 13
-3.23358
 23
-1.33939
 33
5
  0
3DFACE
  8
1_Polygon Mesh
 10
-3.23358
 20
1.33939
 30
5
 11
-4.85037
 21
2.00909
 31
2.5
 12
-5.25
 22
4.5897e-07
 32
2.5
 13
-3.5
 23
3.0598e-07
 33
5
  0
3DFACE
  8
1_Polygon Mesh
 10
-2.47487
 20
2.47487
 30
5
 11
-3.71231
 21
3.71231
 31
2.5
 12
-4.85037
 22
2.00909
 32
2.5
 13
-3.23358
 23
1.33939
 33
5
  0
3DFACE
  8
1_Polygon Mesh
 10
-1.33939
 20
3.23358
 30
5
 11
-2.00909
 21
4.85037
 31
2.5
 12
-3.71231
 22
3.71231
 32
2.5
 13
-2.47487
 23
2.47487
 33
5
  0
3DFACE
  8
1_Polygon Mesh
 10
4.5897e-07
 20
3.5
 30
5
 11
6.88454e-07
 21
5.25
 31
2.5
 12
-2.00909
 22
4.85037
 32
2.5
 13
-1.33939
 23
3.23358
 33
5
  0
3DFACE
  8
1_Polygon Mesh
 10
1.33939
 20
3.23358
 30
5
 11
2.00909
 21
4.85037
 31
2.5
 12
6.88454e-07
 22
5.25
 32
2.5
 13
4.5897e-07
 23
3.5
 33
5
  0
3DFACE
  8
1_Polygon Mesh
 10
2.47487
 20
2.47487
 30
5
 11
3.71231
 21
3.71231
 31
2.5
 12
2.00909
 22
4.85037
 32
2.5
 13
1.33939
 23
3.23358
 33
5
  0
3DFACE
  8
1_Polygon Mesh
 10
3.23358
 20
1.33939
 30
5
 11
4.85037
 21
2.00909
 31
2.5
 12
3.71231
 22
3.71231
 32
2.5
 13
2.47487
 23
2.47487
 33
5
  0
3DFACE
  8
1_Polygon Mesh
 10
3.5
 20
-0
 30
5
 11
5.25
 21
-0
 31
2.5
 12
4.85037
 22
2.00909
 32
2.5
 13
3.23358
 23
1.33939
 33
5
  0
3DFACE
  8
1_Polygon Mesh
 10
1.61679
 20
-0.669696
 30
7.5
 11
3.23358
 21
-1.33939
 31
5
 12
3.5
 22
-0
 32
5
 13
1.75
 23
-0
 33
7.5
  0
3DFACE
  8
1_Polygon Mesh
 10
1.23744
 20
-1.23744
 30
7.5
 11
2.47487
 21
-2.47487
 31
5
 12
3.23358
 22
-1.33939
 32
5
 13
1.61679
 23
-0.669696
 33
7.5
  0
3DFACE
  8
1_Polygon Mesh
 10
0.669696
 20
-1.61679
 30
7.5
 11
1.33939
 21
-3.23358
 31
5
 12
2.47487
 22
-2.47487
 32
5
 13
1.23744
 23
-1.23744
 33
7.5
  0
3DFACE
  8
1_Polygon Mesh
 10
-7.64949e-08
 20
-1.75
 30
7.5
 11
-1.5299e-07
 21
-3.5
 31
5
 12
1.33939
 22
-3.23358
 32
5
 13
0.669696
 23
-1.61679
 33
7.5
  0
3DFACE
  8
1_Polygon Mesh
 10
-0.669696
 20
-1.61679
 30
7.5
 11
-1.33939
 21
-3.23358
 31
5
 12
-1.5299e-07
 22
-3.5
 32
5
 13
-7.64949e-08
 23
-1.75
 33
7.5
  0
3DFACE
  8
1_Polygon Mesh
 10
-1.23744
 20
-1.23744
 30
7.5
 11
-2.47487
 21
-2.47487
 31
5
 12
-1.33939
 22
-3.23358
 32
5
 13
-0.669696
 23
-1.61679
 33
7.5
  0
3DFACE
  8
1_Polygon Mesh
 10
-1.61679
 20
-0.669696
 30
7.5
 11
-3.23358
 21
-1.33939
 31
5
 12
-2.47487
 22
-2.47487
 32
5
 13
-1.23744
 23
-1.23744
 33
7.5
  0
3DFACE
  8
1_Polygon Mesh
 10
-1.75
 20
1.5299e-07
 30
7.5
 11
-3.5
 21
3.0598e-07
 31
5
 12
-3.23358
 22
-1.33939
 32
5
 13
-1.61679
 23
-0.669696
 33
7.5
  0
3DFACE
  8
1_Polygon Mesh
 10
-1.61679
 20
0.669696
 30
7.5
 11
-3.23358
 21
1.33939
 31
5
 12
-3.5
 22
3.0598e-07
 32
5
 13
-1.75
 23
1.5299e-07
 33
7.5
  0
3DFACE
  8
1_Polygon Mesh
 10
-1.23744
 20
1.23744
 30
7.5
 11
-2.47487
 21
2.47487
 31
5
 12
-3.23358
 22
1.33939
 32
5
 13
-1.61679
 23
0.669696
 33
7.5
  0
3DFACE
  8
1_Polygon Mesh
 10
-0.669696
 20
1.61679
 30
7.5
 11
-1.33939
 21
3.23358
 31
5
 12
-2.47487
 22
2.47487
 32
5
 13
-1.23744
 23
1.23744
 33
7.5
  0
3DFACE
  8
1_Polygon Mesh
 10
2.29485e-07
 20
1.75
 30
7.5
 11
4.5897e-07
 21
3.5
 31
5
 12
-1.33939
 22
3.23358
 32
5
 13
-0.669696
 23
1.61679
 33
7.5
  0
3DFACE
  8
1_Polygon Mesh
 10
0.669696
 20
1.61679
 30
7.5
 11
1.33939
 21
3.23358
 31
5
 12
4.5897e-07
 22
3.5
 32
5
 13
2.29485e-07
 23
1.75
 33
7.5
  0
3DFACE
  8
1_Polygon Mesh
 10
1.23744
 20
1.23744
 30
7.5
 11
2.47487
 21
2.47487
 31
5
 12
1.33939
 22
3.23358
 32
5
 13
0.669696
 23
1.61679
 33
7.5
  0
3DFACE
  8
1_Polygon Mesh
 10
1.61679
 20
0.669696
 30
7.5
 11
3.23358
 21
1.33939
 31
5
 12
2.47487
 22
2.47487
 32
5
 13
1.23744
 23
1.23744
 33
7.5
  0
3DFACE
  8
1_Polygon Mesh
 10
1.75
 20
-0
 30
7.5
 11
3.5
 21
-0
 31
5
 12
3.23358
 22
1.33939
 32
5
 13
1.61679
 23
0.669696
 33
7.5
  0
3DFACE
  8
1_Polygon Mesh
 10
1.61679
 20
-0.669696
 30
7.5
 11
1.75
 21
-0
 31
7.5
 12
0
 22
-0
 32
10
 13
0
 23
-0
 33
10
  0
3DFACE
  8
1_Polygon Mesh
 10
1.23744
 20
-1.23744
 30
7.5
 11
1.61679
 21
-0.669696
 31
7.5
 12
0
 22
-0
 32
10
 13
0
 23
-0
 33
10
  0
3DFACE
  8
1_Polygon Mesh
 10
0.669696
 20
-1.61679
 30
7.5
 11
1.23744
 21
-1.23744
 31
7.5
 12
0
 22
-0
 32
10
 13
0
 23
-0
 33
10
  0
3DFACE
  8
1_Polygon Mesh
 10
-7.64949e-08
 20
-1.75
 30
7.5
 11
0.669696
 21
-1.61679
 31
7.5
 12
0
 22
-0
 32
10
 13
0
 23
-0
 33
10
  0
3DFACE
  8
1_Polygon Mesh
 10
-0.669696
 20
-1.61679
 30
7.5
 11
-7.64949e-08
 21
-1.75
 31
7.5
 12
0
 22
-0
 32
10
 13
0
 23
-0
 33
10
  0
3DFACE
  8
1_Polygon Mesh
 10
-1.23744
 20
-1.23744
 30
7.5
 11
-0.669696
 21
-1.61679
 31
7.5
 12
0
 22
-0
 32
10
 13
0
 23
-0
 33
10
  0
3DFACE
  8
1_Polygon Mesh
 10
-1.61679
 20
-0.669696
 30
7.5
 11
-1.23744
 21
-1.23744
 31
7.5
 12
0
 22
-0
 32
10
 13
0
 23
-0
 33
10
  0
3DFACE
  8
1_Polygon Mesh
 10
-1.75
 20
1.5299e-07
 30
7.5
 11
-1.61679
 21
-0.669696
 31
7.5
 12
0
 22
-0
 32
10
 13
0
 23
-0
 33
10
  0
3DFACE
  8
1_Polygon Mesh
 10
-1.61679
 20
0.669696
 30
7.5
 11
-1.75
 21
1.5299e-07
 31
7.5
 12
0
 22
-0
 32
10
 13
0
 23
-0
 33
10
  0
3DFACE
  8
1_Polygon Mesh
 10
-1.23744
 20
1.23744
 30
7.5
 11
-1.61679
 21
0.669696
 31
7.5
 12
0
 22
-0
 32
10
 13
0
 23
-0
 33
10
  0
3DFACE
  8
1_Polygon Mesh
 10
-0.669696
 20
1.61679
 30
7.5
 11
-1.23744
 21
1.23744
 31
7.5
 12
0
 22
-0
 32
10
 13
0
 23
-0
 33
10
  0
3DFACE
  8
1_Polygon Mesh
 10
2.29485e-07
 20
1.75
 30
7.5
 11
-0.669696
 21
1.61679
 31
7.5
 12
0
 22
-0
 32
10
 13
0
 23
-0
 33
10
  0
3DFACE
  8
1_Polygon Mesh
 10
0.669696
 20
1.61679
 30
7.5
 11
2.29485e-07
 21
1.75
 31
7.5
 12
0
 22
-0
 32
10
 13
0
 23
-0
 33
10
  0
3DFACE
  8
1_Polygon Mesh
 10
1.23744
 20
1.23744
 30
7.5
 11
0.669696
 21
1.61679
 31
7.5
 12
0
 22
-0
 32
10
 13
0
 23
-0
 33
10
  0
3DFACE
  8
1_Polygon Mesh
 10
1.61679
 20
0.669696
 30
7.5
 11
1.23744
 21
1.23744
 31
7.5
 12
0
 22
-0
 32
10
 13
0
 23
-0
 33
10
  0
3DFACE
  8
1_Polygon Mesh
 10
1.75
 20
-0
 30
7.5
 11
1.61679
 21
0.669696
 31
7.5
 12
0
 22
-0
 32
10
 13
0
 23
-0
 33
10
  0
ENDSEC
  0
EOF
